@startuml
skinparam linetype ortho
skinparam dpi 400
skinparam nodesep 100

enum Rolle
{
  Operatør
  Kunde
}

class Bruger
{
  id: Integer
  rolle: Rolle
  navn: String
  email: String
}

class Færge
{
  id: Integer
  navn: String
}

enum Kategori
{
  Person
  Kæledyr
  Morgenmad
  Førsteklasse
  Køretøj
}

class Kapacitet
{
  id: Integer
  færge_id: FK
  kategori: Kategori
  maksimum: Integer
}

class Havn
{
  id: Integer
  navn: String
}

class Afgang
{
  id: Integer
  bruger_id: FK
  færge_id: FK
  havn_id: FK
  tidspunkt: Datetime
  aflyst: Byte
}

class Billet
{
  id: Integer
  afgang_id: FK
  bruger_id: FK
  kategori: Kategori
}

enum Variant
{
  Bil
  Lastbil
  Cykel
}

class Køretøj
{
  id: Integer
  billet_id: FK
  variant: Variant
  identifikationsnummer: String
}

class Person
{
  id: Integer
  billet_id: FK
  fornavn: String
  efternavn: String
  fødselsdato: Date
}

Bruger -- Rolle
Billet -- Kategori
Kapacitet -- Kategori
Køretøj -- Variant

Bruger "1" -right- "0..*" Afgang: Operatør
Færge "1" -- "0..*" Afgang
Havn "1" -- "0..*" Afgang
Færge "1" -- "1..*" Kapacitet

Afgang "1" -- "0..*" Billet
Bruger "1" -- "1..*" Billet: Kunde

Billet "1" -- "0..1" Køretøj
Billet "1" -- "0..1" Person

@enduml